<svg width="140" height="20" viewBox="0 0 140 20" fill="none" xmlns="http://www.w3.org/2000/svg">
<path d="M11.0361 8.07546H9.26335C9.19517 7.69667 9.06827 7.36334 8.88267 7.07546C8.69706 6.78758 8.46979 6.54326 8.20085 6.34251C7.93191 6.14175 7.63077 5.99023 7.29744 5.88796C6.9679 5.78569 6.61752 5.73455 6.2463 5.73455C5.57585 5.73455 4.97547 5.90311 4.44517 6.24023C3.91865 6.57736 3.50199 7.07167 3.19517 7.72319C2.89214 8.3747 2.74062 9.17016 2.74062 10.1096C2.74062 11.0565 2.89214 11.8558 3.19517 12.5073C3.50199 13.1588 3.92055 13.6512 4.45085 13.9846C4.98115 14.3179 5.57774 14.4846 6.24062 14.4846C6.60805 14.4846 6.95653 14.4353 7.28608 14.3368C7.61941 14.2346 7.92055 14.0849 8.18949 13.888C8.45843 13.691 8.6857 13.4505 8.8713 13.1664C9.0607 12.8785 9.19138 12.5489 9.26335 12.1777L11.0361 12.1834C10.9414 12.7554 10.7577 13.2819 10.4849 13.763C10.216 14.2402 9.86941 14.6531 9.44517 15.0016C9.02471 15.3463 8.54365 15.6133 8.00199 15.8027C7.46032 15.9921 6.86941 16.0868 6.22926 16.0868C5.22168 16.0868 4.32396 15.8482 3.53608 15.3709C2.7482 14.8899 2.12699 14.2024 1.67244 13.3084C1.22168 12.4145 0.996305 11.3482 0.996305 10.1096C0.996305 8.86713 1.22358 7.80084 1.67812 6.91069C2.13267 6.01675 2.75388 5.33114 3.54176 4.85387C4.32964 4.37281 5.22547 4.13228 6.22926 4.13228C6.84668 4.13228 7.42244 4.22129 7.95653 4.39933C8.49441 4.57357 8.97737 4.83114 9.4054 5.17205C9.83343 5.50917 10.1876 5.92205 10.4679 6.41069C10.7482 6.89554 10.9376 7.45046 11.0361 8.07546ZM16.6767 16.1039C15.8585 16.1039 15.1445 15.9164 14.5347 15.5414C13.9248 15.1664 13.4513 14.6417 13.1142 13.9675C12.7771 13.2933 12.6085 12.5054 12.6085 11.6039C12.6085 10.6986 12.7771 9.9069 13.1142 9.22887C13.4513 8.55084 13.9248 8.02433 14.5347 7.64933C15.1445 7.27433 15.8585 7.08683 16.6767 7.08683C17.4949 7.08683 18.2089 7.27433 18.8187 7.64933C19.4286 8.02433 19.9021 8.55084 20.2392 9.22887C20.5763 9.9069 20.7449 10.6986 20.7449 11.6039C20.7449 12.5054 20.5763 13.2933 20.2392 13.9675C19.9021 14.6417 19.4286 15.1664 18.8187 15.5414C18.2089 15.9164 17.4949 16.1039 16.6767 16.1039ZM16.6824 14.6777C17.2127 14.6777 17.6521 14.5376 18.0006 14.2573C18.3491 13.977 18.6066 13.6039 18.7733 13.138C18.9437 12.6721 19.029 12.1588 19.029 11.5982C19.029 11.0414 18.9437 10.53 18.7733 10.0641C18.6066 9.5944 18.3491 9.21751 18.0006 8.93342C17.6521 8.64932 17.2127 8.50728 16.6824 8.50728C16.1483 8.50728 15.7051 8.64932 15.3528 8.93342C15.0044 9.21751 14.7449 9.5944 14.5744 10.0641C14.4078 10.53 14.3244 11.0414 14.3244 11.5982C14.3244 12.1588 14.4078 12.6721 14.5744 13.138C14.7449 13.6039 15.0044 13.977 15.3528 14.2573C15.7051 14.5376 16.1483 14.6777 16.6824 14.6777ZM22.6412 19.2005V7.20046H24.3003V8.61523H24.4423C24.5408 8.43342 24.6829 8.22319 24.8685 7.98455C25.0541 7.74592 25.3116 7.53758 25.6412 7.35955C25.9707 7.17773 26.4063 7.08683 26.948 7.08683C27.6526 7.08683 28.2813 7.26486 28.8344 7.62092C29.3874 7.97698 29.8211 8.49023 30.1355 9.16069C30.4537 9.83114 30.6128 10.638 30.6128 11.5811C30.6128 12.5243 30.4556 13.333 30.1412 14.0073C29.8268 14.6777 29.395 15.1948 28.8457 15.5584C28.2965 15.9183 27.6696 16.0982 26.9651 16.0982C26.4348 16.0982 26.001 16.0092 25.6639 15.8311C25.3306 15.6531 25.0692 15.4448 24.8798 15.2061C24.6904 14.9675 24.5446 14.7554 24.4423 14.5698H24.3401V19.2005H22.6412ZM24.306 11.5641C24.306 12.1777 24.395 12.7156 24.573 13.1777C24.751 13.6399 25.0086 14.0016 25.3457 14.263C25.6829 14.5205 26.0957 14.6493 26.5844 14.6493C27.0919 14.6493 27.5162 14.5149 27.8571 14.2459C28.198 13.9732 28.4556 13.6039 28.6298 13.138C28.8079 12.6721 28.8969 12.1474 28.8969 11.5641C28.8969 10.9883 28.8098 10.4713 28.6355 10.013C28.4651 9.55463 28.2075 9.19289 27.8628 8.92773C27.5219 8.66258 27.0957 8.53001 26.5844 8.53001C26.0919 8.53001 25.6753 8.6569 25.3344 8.91069C24.9973 9.16448 24.7416 9.51864 24.5673 9.97319C24.3931 10.4277 24.306 10.958 24.306 11.5641ZM33.2932 19.2005C33.0394 19.2005 32.8083 19.1796 32.6 19.138C32.3917 19.1001 32.2364 19.0584 32.1341 19.013L32.5432 17.6209C32.8538 17.7042 33.1303 17.7402 33.3727 17.7289C33.6151 17.7175 33.8292 17.6266 34.0148 17.4561C34.2042 17.2857 34.3708 17.0073 34.5148 16.6209L34.725 16.0414L31.5318 7.20046H33.35L35.5602 13.9732H35.6511L37.8614 7.20046H39.6852L36.0886 17.0925C35.922 17.5471 35.7098 17.9315 35.4523 18.2459C35.1947 18.5641 34.8879 18.8027 34.5318 18.9618C34.1758 19.1209 33.7629 19.2005 33.2932 19.2005ZM41.2818 15.9277V7.20046H42.9239V8.58682H43.0148C43.1739 8.11713 43.4542 7.74781 43.8557 7.47887C44.261 7.20614 44.7193 7.06978 45.2307 7.06978C45.3367 7.06978 45.4617 7.07357 45.6057 7.08114C45.7534 7.08872 45.8689 7.09819 45.9523 7.10955V8.73455C45.8841 8.71561 45.7629 8.69478 45.5886 8.67205C45.4144 8.64554 45.2401 8.63228 45.0659 8.63228C44.6644 8.63228 44.3064 8.71751 43.992 8.88796C43.6814 9.05463 43.4352 9.28758 43.2534 9.58682C43.0716 9.88228 42.9807 10.2194 42.9807 10.5982V15.9277H41.2818ZM47.4224 15.9277V7.20046H49.1213V15.9277H47.4224ZM48.2804 5.85387C47.9849 5.85387 47.7312 5.75539 47.519 5.55842C47.3107 5.35766 47.2065 5.11902 47.2065 4.84251C47.2065 4.5622 47.3107 4.32357 47.519 4.1266C47.7312 3.92584 47.9849 3.82546 48.2804 3.82546C48.5759 3.82546 48.8277 3.92584 49.0361 4.1266C49.2482 4.32357 49.3543 4.5622 49.3543 4.84251C49.3543 5.11902 49.2482 5.35766 49.0361 5.55842C48.8277 5.75539 48.5759 5.85387 48.2804 5.85387ZM55.0659 19.3823C54.3727 19.3823 53.7761 19.2914 53.2761 19.1096C52.7799 18.9277 52.3746 18.6872 52.0602 18.388C51.7458 18.0887 51.511 17.7611 51.3557 17.405L52.8159 16.8027C52.9182 16.9694 53.0545 17.1455 53.225 17.3311C53.3992 17.5205 53.6341 17.6815 53.9295 17.8141C54.2288 17.9467 54.6133 18.013 55.083 18.013C55.7269 18.013 56.2591 17.8558 56.6795 17.5414C57.1 17.2308 57.3102 16.7346 57.3102 16.0527V14.3368H57.2023C57.1 14.5224 56.9523 14.7289 56.7591 14.9561C56.5697 15.1834 56.3083 15.3804 55.975 15.5471C55.6417 15.7137 55.208 15.7971 54.6739 15.7971C53.9845 15.7971 53.3633 15.6361 52.8102 15.3141C52.261 14.9883 51.8254 14.5092 51.5034 13.8766C51.1852 13.2402 51.0261 12.458 51.0261 11.53C51.0261 10.602 51.1833 9.80652 51.4977 9.14364C51.8159 8.48076 52.2515 7.97319 52.8045 7.62092C53.3576 7.26486 53.9845 7.08683 54.6852 7.08683C55.2269 7.08683 55.6644 7.17773 55.9977 7.35955C56.3311 7.53758 56.5905 7.74592 56.7761 7.98455C56.9655 8.22319 57.1114 8.43342 57.2136 8.61523H57.3386V7.20046H59.0034V16.1209C59.0034 16.8709 58.8292 17.4864 58.4807 17.9675C58.1322 18.4486 57.6606 18.8046 57.0659 19.0357C56.475 19.2667 55.8083 19.3823 55.0659 19.3823ZM55.0489 14.388C55.5375 14.388 55.9504 14.2743 56.2875 14.0471C56.6284 13.816 56.886 13.4864 57.0602 13.0584C57.2383 12.6266 57.3273 12.1096 57.3273 11.5073C57.3273 10.9202 57.2401 10.4031 57.0659 9.95614C56.8917 9.50917 56.636 9.16069 56.2989 8.91069C55.9617 8.6569 55.5451 8.53001 55.0489 8.53001C54.5375 8.53001 54.1114 8.66258 53.7705 8.92773C53.4295 9.1891 53.172 9.54516 52.9977 9.99592C52.8273 10.4467 52.742 10.9505 52.742 11.5073C52.742 12.0792 52.8292 12.5811 53.0034 13.013C53.1776 13.4448 53.4352 13.7819 53.7761 14.0243C54.1208 14.2667 54.5451 14.388 55.0489 14.388ZM62.9807 10.7459V15.9277H61.2818V4.29137H62.958V8.62092H63.0659C63.2705 8.15122 63.583 7.77811 64.0034 7.5016C64.4239 7.22508 64.9731 7.08683 65.6511 7.08683C66.2496 7.08683 66.7723 7.20993 67.2193 7.45614C67.6701 7.70236 68.0186 8.06978 68.2648 8.55842C68.5148 9.04326 68.6398 9.64933 68.6398 10.3766V15.9277H66.9409V10.5811C66.9409 9.94099 66.7761 9.44478 66.4466 9.09251C66.117 8.73645 65.6587 8.55842 65.0716 8.55842C64.6701 8.55842 64.3102 8.64364 63.992 8.8141C63.6776 8.98455 63.4295 9.23455 63.2477 9.5641C63.0697 9.88986 62.9807 10.2838 62.9807 10.7459ZM74.9807 7.20046V8.5641H70.2136V7.20046H74.9807ZM71.492 5.10955H73.1909V13.3652C73.1909 13.6948 73.2401 13.9429 73.3386 14.1096C73.4371 14.2724 73.564 14.3842 73.7193 14.4448C73.8784 14.5016 74.0508 14.53 74.2364 14.53C74.3727 14.53 74.492 14.5205 74.5943 14.5016C74.6966 14.4827 74.7761 14.4675 74.833 14.4561L75.1398 15.8596C75.0413 15.8974 74.9011 15.9353 74.7193 15.9732C74.5375 16.0149 74.3102 16.0376 74.0375 16.0414C73.5905 16.0489 73.1739 15.9694 72.7875 15.8027C72.4011 15.6361 72.0886 15.3785 71.85 15.03C71.6114 14.6815 71.492 14.244 71.492 13.7175V5.10955Z" fill="#7F7D7C"/>
<path d="M83.8129 9.66774C83.8463 9.44774 83.9196 9.25441 84.0129 9.08774C84.1063 8.92108 84.2396 8.78108 84.4063 8.67441C84.5663 8.57441 84.7663 8.52774 85.0129 8.52108C85.1663 8.52774 85.3063 8.55441 85.4329 8.60774C85.5663 8.66774 85.6863 8.74774 85.7796 8.84774C85.8729 8.94774 85.9463 9.06774 86.0063 9.20108C86.0663 9.33441 86.0929 9.48108 86.0996 9.62774H87.2929C87.2796 9.31441 87.2196 9.02774 87.1063 8.76774C86.9929 8.50774 86.8396 8.28108 86.6396 8.09441C86.4396 7.90774 86.1996 7.76108 85.9196 7.65441C85.6396 7.54774 85.3329 7.50108 84.9929 7.50108C84.5596 7.50108 84.1796 7.57441 83.8596 7.72774C83.5396 7.88108 83.2729 8.08108 83.0596 8.34108C82.8463 8.60108 82.6863 8.90108 82.5863 9.24774C82.4863 9.59441 82.4263 9.95441 82.4263 10.3411V10.5211C82.4263 10.9077 82.4796 11.2677 82.5796 11.6144C82.6796 11.9611 82.8396 12.2611 83.0529 12.5144C83.2663 12.7677 83.5329 12.9744 83.8529 13.1211C84.1729 13.2677 84.5529 13.3477 84.9863 13.3477C85.2996 13.3477 85.5929 13.2944 85.8663 13.1944C86.1396 13.0944 86.3796 12.9544 86.5863 12.7744C86.7929 12.5944 86.9596 12.3877 87.0796 12.1477C87.1996 11.9077 87.2729 11.6544 87.2796 11.3811H86.0863C86.0796 11.5211 86.0463 11.6477 85.9863 11.7677C85.9263 11.8877 85.8463 11.9877 85.7463 12.0744C85.6463 12.1611 85.5329 12.2277 85.3996 12.2744C85.2729 12.3211 85.1396 12.3344 84.9996 12.3411C84.7596 12.3344 84.5596 12.2877 84.4063 12.1877C84.2396 12.0811 84.1063 11.9411 84.0129 11.7744C83.9196 11.6077 83.8463 11.4077 83.8129 11.1877C83.7796 10.9677 83.7596 10.7411 83.7596 10.5211V10.3411C83.7596 10.1077 83.7796 9.88774 83.8129 9.66774ZM85.0929 3.76108C81.4129 3.76108 78.4263 6.74774 78.4263 10.4277C78.4263 14.1077 81.4129 17.0944 85.0929 17.0944C88.7729 17.0944 91.7596 14.1077 91.7596 10.4277C91.7596 6.74774 88.7729 3.76108 85.0929 3.76108ZM85.0929 15.7611C82.1529 15.7611 79.7596 13.3677 79.7596 10.4277C79.7596 7.48774 82.1529 5.09441 85.0929 5.09441C88.0329 5.09441 90.4263 7.48774 90.4263 10.4277C90.4263 13.3677 88.0329 15.7611 85.0929 15.7611Z" fill="#7F7D7C"/>
<path d="M95.2122 15.9277V14.655L99.1497 10.5755C99.5702 10.1323 99.9168 9.74402 100.189 9.41069C100.466 9.07357 100.672 8.75349 100.809 8.45046C100.945 8.14743 101.013 7.82546 101.013 7.48455C101.013 7.09819 100.922 6.76486 100.741 6.48455C100.559 6.20046 100.311 5.98266 99.9963 5.83114C99.6819 5.67584 99.3277 5.59819 98.9338 5.59819C98.5171 5.59819 98.1535 5.68342 97.8429 5.85387C97.5323 6.02433 97.2937 6.26486 97.127 6.57546C96.9603 6.88607 96.877 7.2497 96.877 7.66637H95.2009C95.2009 6.95804 95.3637 6.33872 95.6895 5.80842C96.0152 5.27811 96.4622 4.86713 97.0304 4.57546C97.5986 4.28001 98.2444 4.13228 98.9679 4.13228C99.699 4.13228 100.343 4.27811 100.9 4.56978C101.46 4.85766 101.898 5.2516 102.212 5.7516C102.527 6.24781 102.684 6.80842 102.684 7.43342C102.684 7.86523 102.602 8.28758 102.439 8.70046C102.28 9.11334 102.002 9.57357 101.604 10.0811C101.207 10.5849 100.654 11.1967 99.9452 11.9164L97.6327 14.3368V14.4221H102.871V15.9277H95.2122ZM109.076 16.1209C108.178 16.1171 107.411 15.8804 106.775 15.4107C106.138 14.941 105.652 14.2573 105.314 13.3596C104.977 12.4618 104.809 11.3804 104.809 10.1152C104.809 8.85387 104.977 7.77622 105.314 6.88228C105.655 5.98834 106.144 5.30652 106.78 4.83683C107.421 4.36713 108.186 4.13228 109.076 4.13228C109.966 4.13228 110.729 4.36902 111.366 4.84251C112.002 5.3122 112.489 5.99402 112.826 6.88796C113.167 7.77811 113.337 8.85387 113.337 10.1152C113.337 11.3842 113.169 12.4675 112.832 13.3652C112.494 14.2592 112.008 14.9429 111.371 15.4164C110.735 15.8861 109.97 16.1209 109.076 16.1209ZM109.076 14.6039C109.864 14.6039 110.479 14.2194 110.922 13.4505C111.369 12.6815 111.593 11.5698 111.593 10.1152C111.593 9.14933 111.491 8.33304 111.286 7.66637C111.085 6.99592 110.796 6.48834 110.417 6.14364C110.042 5.79516 109.595 5.62092 109.076 5.62092C108.292 5.62092 107.676 6.00728 107.229 6.78001C106.782 7.55273 106.557 8.66448 106.553 10.1152C106.553 11.0849 106.654 11.905 106.854 12.5755C107.059 13.2421 107.349 13.7478 107.724 14.0925C108.099 14.4334 108.549 14.6039 109.076 14.6039ZM115.353 15.9277V14.655L119.29 10.5755C119.711 10.1323 120.057 9.74402 120.33 9.41069C120.607 9.07357 120.813 8.75349 120.949 8.45046C121.086 8.14743 121.154 7.82546 121.154 7.48455C121.154 7.09819 121.063 6.76486 120.881 6.48455C120.699 6.20046 120.451 5.98266 120.137 5.83114C119.823 5.67584 119.468 5.59819 119.074 5.59819C118.658 5.59819 118.294 5.68342 117.984 5.85387C117.673 6.02433 117.434 6.26486 117.268 6.57546C117.101 6.88607 117.018 7.2497 117.018 7.66637H115.341C115.341 6.95804 115.504 6.33872 115.83 5.80842C116.156 5.27811 116.603 4.86713 117.171 4.57546C117.739 4.28001 118.385 4.13228 119.109 4.13228C119.84 4.13228 120.484 4.27811 121.04 4.56978C121.601 4.85766 122.038 5.2516 122.353 5.7516C122.667 6.24781 122.824 6.80842 122.824 7.43342C122.824 7.86523 122.743 8.28758 122.58 8.70046C122.421 9.11334 122.143 9.57357 121.745 10.0811C121.347 10.5849 120.794 11.1967 120.086 11.9164L117.773 14.3368V14.4221H123.012V15.9277H115.353ZM124.671 13.655V12.2346L129.699 4.29137H130.819V6.38228H130.109L126.512 12.0755V12.1664H133.404V13.655H124.671ZM130.188 15.9277V13.2232L130.199 12.5755V4.29137H131.864V15.9277H130.188ZM136.089 16.0357C135.778 16.0357 135.511 15.9258 135.287 15.7061C135.064 15.4827 134.952 15.2137 134.952 14.8993C134.952 14.5887 135.064 14.3236 135.287 14.1039C135.511 13.8804 135.778 13.7686 136.089 13.7686C136.399 13.7686 136.666 13.8804 136.89 14.1039C137.113 14.3236 137.225 14.5887 137.225 14.8993C137.225 15.1077 137.172 15.2989 137.066 15.4732C136.964 15.6436 136.827 15.78 136.657 15.8823C136.486 15.9846 136.297 16.0357 136.089 16.0357Z" fill="#7F7D7C"/>
</svg>
