<svg width="25" height="25" viewBox="0 0 25 25" fill="none" xmlns="http://www.w3.org/2000/svg">
<path fill-rule="evenodd" clip-rule="evenodd" d="M11.4905 22.7019C11.4905 22.7019 4.22852 16.5859 4.22852 10.5679C4.22852 8.44614 5.07137 6.41131 6.57166 4.91102C8.07195 3.41073 10.1068 2.56787 12.2285 2.56787C14.3502 2.56787 16.3851 3.41073 17.8854 4.91102C19.3857 6.41131 20.2285 8.44614 20.2285 10.5679C20.2285 16.5859 12.9665 22.7019 12.9665 22.7019C12.5625 23.0739 11.8975 23.0699 11.4905 22.7019ZM12.2285 14.0679C12.6881 14.0679 13.1433 13.9773 13.5679 13.8014C13.9925 13.6256 14.3784 13.3678 14.7034 13.0427C15.0284 12.7177 15.2862 12.3319 15.4621 11.9073C15.638 11.4826 15.7285 11.0275 15.7285 10.5679C15.7285 10.1082 15.638 9.65312 15.4621 9.22848C15.2862 8.80384 15.0284 8.418 14.7034 8.093C14.3784 7.76799 13.9925 7.51018 13.5679 7.33429C13.1433 7.1584 12.6881 7.06787 12.2285 7.06787C11.3003 7.06787 10.41 7.43662 9.75364 8.093C9.09726 8.74937 8.72852 9.63961 8.72852 10.5679C8.72852 11.4961 9.09726 12.3864 9.75364 13.0427C10.41 13.6991 11.3003 14.0679 12.2285 14.0679Z" fill="white"/>
</svg>
