<svg width="25" height="25" viewBox="0 0 25 25" fill="none" xmlns="http://www.w3.org/2000/svg">
<g clip-path="url(#clip0_48_3441)">
<path d="M21.9457 4.14862C21.8548 4.13926 21.7632 4.13926 21.6723 4.14862H3.00568C2.88604 4.15047 2.76719 4.16841 2.65234 4.20196L12.2857 13.7953L21.9457 4.14862Z" fill="white"/>
<path d="M22.933 5.0752L13.2264 14.7419C12.9765 14.9902 12.6386 15.1296 12.2864 15.1296C11.9341 15.1296 11.5962 14.9902 11.3464 14.7419L1.72635 5.14853C1.69678 5.25722 1.6811 5.36923 1.67969 5.48186V18.8152C1.67969 19.1688 1.82016 19.508 2.07021 19.758C2.32026 20.0081 2.6594 20.1485 3.01302 20.1485H21.6797C22.0333 20.1485 22.3724 20.0081 22.6225 19.758C22.8725 19.508 23.013 19.1688 23.013 18.8152V5.48186C23.0077 5.34297 22.9807 5.20575 22.933 5.0752ZM3.92635 18.8152H2.99969V17.8619L7.84635 13.0552L8.78635 13.9952L3.92635 18.8152ZM21.6664 18.8152H20.733L15.873 13.9952L16.813 13.0552L21.6597 17.8619L21.6664 18.8152Z" fill="white"/>
</g>
<defs>
<clipPath id="clip0_48_3441">
<rect width="24" height="24" fill="white" transform="translate(0.392578 0.148438)"/>
</clipPath>
</defs>
</svg>
