<svg width="25" height="24" viewBox="0 0 25 24" fill="none" xmlns="http://www.w3.org/2000/svg">
<path d="M17.2307 12.9065L16.7757 13.3595C16.7757 13.3595 15.6927 14.4355 12.7377 11.4975C9.78268 8.55947 10.8657 7.48347 10.8657 7.48347L11.1517 7.19747C11.8587 6.49547 11.9257 5.36747 11.3087 4.54347L10.0487 2.86047C9.28468 1.84047 7.80968 1.70547 6.93468 2.57547L5.36468 4.13547C4.93168 4.56747 4.64168 5.12547 4.67668 5.74547C4.76668 7.33247 5.48468 10.7455 9.48868 14.7275C13.7357 18.9495 17.7207 19.1175 19.3497 18.9655C19.8657 18.9175 20.3137 18.6555 20.6747 18.2955L22.0947 16.8835C23.0547 15.9305 22.7847 14.2955 21.5567 13.6285L19.6467 12.5895C18.8407 12.1525 17.8607 12.2805 17.2307 12.9065Z" fill="white"/>
</svg>
