<svg width="44" height="44" viewBox="0 0 44 44" fill="none" xmlns="http://www.w3.org/2000/svg">
<circle cx="22" cy="22" r="22" fill="#DCE5E4"/>
<g clip-path="url(#clip0_125_425)">
<path d="M14.75 11.875C14.1864 11.875 13.6459 12.0989 13.2474 12.4974C12.8489 12.8959 12.625 13.4364 12.625 14C12.625 14.5636 12.8489 15.1041 13.2474 15.5026C13.6459 15.9011 14.1864 16.125 14.75 16.125C15.3136 16.125 15.8541 15.9011 16.2526 15.5026C16.6511 15.1041 16.875 14.5636 16.875 14C16.875 13.4364 16.6511 12.8959 16.2526 12.4974C15.8541 12.0989 15.3136 11.875 14.75 11.875ZM12.75 17.875C12.7168 17.875 12.6851 17.8882 12.6616 17.9116C12.6382 17.9351 12.625 17.9668 12.625 18V31C12.625 31.069 12.681 31.125 12.75 31.125H16.75C16.7832 31.125 16.8149 31.1118 16.8384 31.0884C16.8618 31.0649 16.875 31.0332 16.875 31V18C16.875 17.9668 16.8618 17.9351 16.8384 17.9116C16.8149 17.8882 16.7832 17.875 16.75 17.875H12.75ZM19.25 17.875C19.2168 17.875 19.1851 17.8882 19.1616 17.9116C19.1382 17.9351 19.125 17.9668 19.125 18V31C19.125 31.069 19.181 31.125 19.25 31.125H23.25C23.2832 31.125 23.3149 31.1118 23.3384 31.0884C23.3618 31.0649 23.375 31.0332 23.375 31V24C23.375 23.5027 23.5725 23.0258 23.9242 22.6742C24.2758 22.3225 24.7527 22.125 25.25 22.125C25.7473 22.125 26.2242 22.3225 26.5758 22.6742C26.9275 23.0258 27.125 23.5027 27.125 24V31C27.125 31.069 27.181 31.125 27.25 31.125H31.25C31.2832 31.125 31.3149 31.1118 31.3384 31.0884C31.3618 31.0649 31.375 31.0332 31.375 31V22.38C31.375 19.953 29.265 18.055 26.85 18.274C26.1029 18.3425 25.371 18.5274 24.681 18.822L23.375 19.382V18C23.375 17.9668 23.3618 17.9351 23.3384 17.9116C23.3149 17.8882 23.2832 17.875 23.25 17.875H19.25Z" fill="#385D5D"/>
</g>
<defs>
<clipPath id="clip0_125_425">
<rect width="24" height="24" fill="white" transform="translate(10 10)"/>
</clipPath>
</defs>
</svg>
