<svg width="44" height="44" viewBox="0 0 44 44" fill="none" xmlns="http://www.w3.org/2000/svg">
<circle cx="22" cy="22" r="22" fill="#DCE5E4"/>
<path d="M26 13C27.3261 13 28.5979 13.5268 29.5355 14.4645C30.4732 15.4021 31 16.6739 31 18V26C31 27.3261 30.4732 28.5979 29.5355 29.5355C28.5979 30.4732 27.3261 31 26 31H18C16.6739 31 15.4021 30.4732 14.4645 29.5355C13.5268 28.5979 13 27.3261 13 26V18C13 16.6739 13.5268 15.4021 14.4645 14.4645C15.4021 13.5268 16.6739 13 18 13H26ZM22 18C20.9391 18 19.9217 18.4214 19.1716 19.1716C18.4214 19.9217 18 20.9391 18 22C18 23.0609 18.4214 24.0783 19.1716 24.8284C19.9217 25.5786 20.9391 26 22 26C23.0609 26 24.0783 25.5786 24.8284 24.8284C25.5786 24.0783 26 23.0609 26 22C26 20.9391 25.5786 19.9217 24.8284 19.1716C24.0783 18.4214 23.0609 18 22 18ZM22 20C22.5304 20 23.0391 20.2107 23.4142 20.5858C23.7893 20.9609 24 21.4696 24 22C24 22.5304 23.7893 23.0391 23.4142 23.4142C23.0391 23.7893 22.5304 24 22 24C21.4696 24 20.9609 23.7893 20.5858 23.4142C20.2107 23.0391 20 22.5304 20 22C20 21.4696 20.2107 20.9609 20.5858 20.5858C20.9609 20.2107 21.4696 20 22 20ZM26.5 16.5C26.2348 16.5 25.9804 16.6054 25.7929 16.7929C25.6054 16.9804 25.5 17.2348 25.5 17.5C25.5 17.7652 25.6054 18.0196 25.7929 18.2071C25.9804 18.3946 26.2348 18.5 26.5 18.5C26.7652 18.5 27.0196 18.3946 27.2071 18.2071C27.3946 18.0196 27.5 17.7652 27.5 17.5C27.5 17.2348 27.3946 16.9804 27.2071 16.7929C27.0196 16.6054 26.7652 16.5 26.5 16.5Z" fill="#385D5D"/>
</svg>
