<svg width="94" height="28" viewBox="0 0 94 28" fill="none" xmlns="http://www.w3.org/2000/svg">
<path d="M0.582386 27.4761V1.29426H17.3551V5.27011H5.32528V12.3781H16.2045V16.3539H5.32528V27.4761H0.582386ZM32.7567 19.2176V7.83971H37.3846V27.4761H32.8974V23.986H32.6928C32.2496 25.0854 31.521 25.9846 30.5067 26.6835C29.5011 27.3823 28.261 27.7318 26.7866 27.7318C25.4996 27.7318 24.3619 27.4462 23.3732 26.8752C22.3931 26.2957 21.6261 25.4562 21.0721 24.3568C20.5181 23.2488 20.2411 21.9107 20.2411 20.3426V7.83971H24.869V19.6266C24.869 20.871 25.2099 21.8596 25.8917 22.5926C26.5735 23.3255 27.4684 23.692 28.5764 23.692C29.2582 23.692 29.9187 23.5258 30.5579 23.1934C31.1971 22.861 31.7212 22.3667 32.1303 21.7104C32.5479 21.0457 32.7567 20.2147 32.7567 19.2176ZM42.1435 27.4761V7.83971H46.6307V11.1124H46.8352C47.1932 9.97892 47.8068 9.10534 48.6761 8.4917C49.554 7.86954 50.5554 7.55846 51.6804 7.55846C51.9361 7.55846 52.2216 7.57124 52.5369 7.59681C52.8608 7.61386 53.1293 7.64369 53.3423 7.6863V11.9434C53.1463 11.8752 52.8352 11.8156 52.4091 11.7644C51.9915 11.7048 51.5866 11.6749 51.1946 11.6749C50.3509 11.6749 49.5923 11.8582 48.919 12.2247C48.2543 12.5826 47.7301 13.0812 47.3466 13.7204C46.9631 14.3596 46.7713 15.0968 46.7713 15.932V27.4761H42.1435ZM61.0447 15.9704V27.4761H56.4169V7.83971H60.8402V11.1764H61.0703C61.522 10.0769 62.2422 9.20335 63.2308 8.55562C64.228 7.90789 65.4595 7.58403 66.9254 7.58403C68.2805 7.58403 69.4609 7.8738 70.4666 8.45335C71.4808 9.03289 72.2649 9.87238 72.8189 10.9718C73.3814 12.0712 73.6584 13.4051 73.6499 14.9732V27.4761H69.022V15.6891C69.022 14.3766 68.6811 13.3497 67.9993 12.6082C67.326 11.8667 66.3928 11.496 65.1996 11.496C64.3899 11.496 63.6697 11.6749 63.0391 12.0329C62.4169 12.3823 61.9268 12.8894 61.5689 13.5542C61.2195 14.219 61.0447 15.0244 61.0447 15.9704ZM78.3544 27.4761V7.83971H82.9822V27.4761H78.3544ZM80.6811 5.05278C79.9482 5.05278 79.3175 4.80988 78.7891 4.32408C78.2607 3.82977 77.9964 3.23744 77.9964 2.5471C77.9964 1.84823 78.2607 1.2559 78.7891 0.770107C79.3175 0.275789 79.9482 0.0286303 80.6811 0.0286303C81.4226 0.0286303 82.0533 0.275789 82.5732 0.770107C83.1016 1.2559 83.3658 1.84823 83.3658 2.5471C83.3658 3.23744 83.1016 3.82977 82.5732 4.32408C82.0533 4.80988 81.4226 5.05278 80.6811 5.05278ZM90.592 27.7573C89.8164 27.7573 89.1516 27.4846 88.5977 26.9391C88.0437 26.3937 87.771 25.7289 87.7795 24.9448C87.771 24.1778 88.0437 23.5215 88.5977 22.9761C89.1516 22.4306 89.8164 22.1579 90.592 22.1579C91.342 22.1579 91.994 22.4306 92.5479 22.9761C93.1104 23.5215 93.396 24.1778 93.4045 24.9448C93.396 25.4647 93.2596 25.9377 92.9954 26.3639C92.7397 26.79 92.3988 27.1309 91.9727 27.3866C91.555 27.6337 91.0948 27.7573 90.592 27.7573Z" fill="white"/>
</svg>
